<?xml version="1.0" encoding="utf-8"?>
<!-- Generator: Adobe Illustrator 19.0.0, SVG Export Plug-In . SVG Version: 6.00 Build 0)  -->
<svg version="1.1" id="Layer_1" xmlns="http://www.w3.org/2000/svg" xmlns:xlink="http://www.w3.org/1999/xlink" x="0px" y="0px"
	 viewBox="0 0 823 503" style="enable-background:new 0 0 823 503;" xml:space="preserve">
<style type="text/css">
	.st0{fill:#E6E6E6;}
	.st1{fill:none;stroke:#F7931E;stroke-width:2;stroke-miterlimit:10;}
	.st2{fill:#8CC63F;stroke:#39B54A;stroke-width:3;stroke-miterlimit:10;}
	.st3{fill:#A1A5A8;}
	.st4{opacity:0.15;}
	.st5{opacity:0.25;fill:#FFFFFF;enable-background:new    ;}
	.st6{opacity:0.75;fill:#FFFFFF;enable-background:new    ;}
	.st7{fill:#158CE5;}
	.st8{clip-path:url(#XMLID_99_);}
	.st9{clip-path:url(#XMLID_125_);fill:url(#XMLID_126_);}
	.st10{fill:url(#XMLID_127_);}
	.st11{opacity:0.15;fill:#051F91;enable-background:new    ;}
	.st12{fill:#40A4FF;}
	.st13{opacity:0.25;fill:#0382E2;enable-background:new    ;}
	.st14{fill:#F4A769;}
	.st15{fill:#CC7337;}
	.st16{opacity:0.25;fill:#664701;enable-background:new    ;}
	.st17{fill:#F9B485;}
	.st18{fill:#664701;}
	.st19{fill:#FFB27D;}
	.st20{opacity:0.15;fill:#E6F4FF;enable-background:new    ;}
	.st21{opacity:0.1;fill:#E6F4FF;enable-background:new    ;}
	.st22{fill:none;stroke:#000000;stroke-width:3;stroke-miterlimit:10;}
	.st23{fill:#FBB03B;}
	.st24{fill:none;stroke:#FFFFFF;stroke-width:3;stroke-miterlimit:10;}
	.st25{fill:#CCCCCC;}
</style>
<rect id="XMLID_96_" y="317.2" class="st0" width="823" height="185.8"/>
<line id="XMLID_86_" class="st1" x1="486" y1="452" x2="471" y2="452"/>
<path id="XMLID_109_" class="st2" d="M625.3,486.4c-23.5-20-47.2-40-70.7-60.1c6.8,0,13.5,0,20.3,0c0-21,0-42,0-63
	c35.5,0,71,0,106.5,0c0,21,0,42,0,63c6.7,0,13.5,0,20.2,0c-24.4,20.7-48.8,41.5-73.3,62.2C626.7,488,626.3,487.1,625.3,486.4z"/>
<g id="XMLID_1_">
	<g id="XMLID_84_">
	</g>
	<g id="XMLID_70_">
		<path id="XMLID_81_" class="st3" d="M244.9,210.9c-3.7-5.5-16.9-9.1-29.6-8c-12.6,1.1-19.8,6.5-16.1,12c3.7,5.5,16.9,9.1,29.6,8
			C241.3,221.8,248.5,216.4,244.9,210.9z M226.6,219.9c-8.7,0.8-17.9-1.7-20.5-5.5c-2.6-3.8,2.5-7.6,11.2-8.3
			c8.7-0.8,17.9,1.7,20.5,5.5C240.4,215.3,235.4,219.1,226.6,219.9z"/>
		<g id="XMLID_78_" class="st4">
			<path id="XMLID_80_" d="M217.3,206c8.7-0.8,17.9,1.7,20.5,5.5c0.1,0.2,0.2,0.3,0.3,0.5c-0.1-0.4-0.2-0.7-0.5-1.1
				c-2.6-3.8-11.8-6.3-20.5-5.5c-8.3,0.7-13.2,4.2-11.4,7.8C204.6,209.8,209.4,206.6,217.3,206z"/>
			<path id="XMLID_79_" d="M245.3,211.7c1.7,5-5.2,9.6-16.7,10.6c-12.6,1.1-25.8-2.5-29.6-8c-0.2-0.3-0.3-0.6-0.5-0.8
				c0.2,0.4,0.4,0.9,0.7,1.4c3.7,5.5,16.9,9.1,29.6,8C240.7,221.9,247.8,216.9,245.3,211.7z"/>
		</g>
		<path id="XMLID_77_" class="st5" d="M200.3,210.3c0.3-1.8,7.2-6.6,19-6.9c11.8-0.3,19.4,3,22.1,5.8c3.3,3.5-4.3-1.4-10.5-2.8
			c-6.1-1.4-10.9-1.9-15.9-1.1c-5.1,0.8-12.5,3.7-12.2,7.3C203,216.1,199.8,213,200.3,210.3z"/>
		<path id="XMLID_76_" class="st5" d="M202.8,206.9c2-1.6,8.3-3.9,18.6-3.5s12.1,1.3,11.4,2.1c-0.7,0.8-7-1-15-0.7
			c-8.1,0.2-11.7,5.1-14.3,5C200.8,209.7,201.4,208,202.8,206.9z"/>
		<path id="XMLID_75_" class="st5" d="M208.5,217.1c4.3,2.6,12.4,4.3,22.5,2.6s9.1-5.7,9.2-7.2c0.1-1.4,3.8-1.6,4.3,0.1
			c0.6,1.7-0.8,7.3-12.4,8.8s-16.7,0.1-19.4-0.4c-2.8-0.5-9.9-3.2-10.9-4.7C200.7,214.8,204.7,214.7,208.5,217.1z"/>
		<path id="XMLID_74_" class="st6" d="M237.5,207.8c1.5-0.4,4.9,1.4,4.9,2.4c0.1,1-2.8,0.5-4-0.6C237.2,208.5,236.7,208,237.5,207.8
			z"/>
		<path id="XMLID_73_" class="st6" d="M241.7,211.6c0.7-0.1,1.6,0.4,1.8,1.2c0.2,0.8-1.3,1.6-2.4,1
			C240,213.2,240.4,211.8,241.7,211.6z"/>
		<path id="XMLID_72_" class="st6" d="M241.7,214.9c0.3,0,0.7,0.2,0.6,0.6c-0.1,0.3-0.8,0.7-1.2,0.4
			C240.8,215.6,241.2,214.9,241.7,214.9z"/>
		<path id="XMLID_71_" class="st6" d="M216.3,203.9c1.8-0.1,6.5-0.4,11.5,0.5c5.1,0.9,8.9,2.6,8.9,3c0.1,0.4-3.1-0.7-6-1.4
			c-3-0.8-6.7-1.4-12.4-1.3c-3.6,0.1-7.3,1.1-8.7,0.7C208.3,205,212.5,204.1,216.3,203.9z"/>
	</g>
	<path id="XMLID_69_" class="st7" d="M326.9,322.2c47.4,12,148.4,14.2,221.7,0c73.4-14.2,152.9-63.1,177-102.9l17-1.3
		c0,0,8.3,55.4-12.7,94.8c-26.8,50.3-76.1,69-76.1,69s-121.4,28.5-237.6-3.5S326.9,322.2,326.9,322.2z"/>
	<g id="XMLID_64_">
		<g id="XMLID_65_">
			<defs>
				<polygon id="XMLID_68_" points="156.6,129.3 157.4,129.3 156.6,129.8 				"/>
			</defs>
			<defs>
				<polygon id="XMLID_67_" points="155,128.2 154.2,128.2 155,127.6 				"/>
			</defs>
			<clipPath id="XMLID_99_">
				<use xlink:href="#XMLID_68_"  style="overflow:visible;"/>
			</clipPath>
			<clipPath id="XMLID_125_" class="st8">
				<use xlink:href="#XMLID_67_"  style="overflow:visible;"/>
			</clipPath>
			
				<linearGradient id="XMLID_126_" gradientUnits="userSpaceOnUse" x1="411.7663" y1="688.576" x2="431.4555" y2="742.1061" gradientTransform="matrix(1 0 0 -1 84 1094)">
				<stop  offset="0" style="stop-color:#FFFFFF"/>
				<stop  offset="1" style="stop-color:#000000"/>
			</linearGradient>
			<path id="XMLID_66_" class="st9" d="M326.9,322.2c47.4,12,148.4,14.2,221.7,0c73.4-14.2,202.3-48.8,181.4-9.5
				c-26.8,50.3-76.1,69-76.1,69s-121.4,28.5-237.6-3.5S326.9,322.2,326.9,322.2z"/>
		</g>
	</g>
	
		<linearGradient id="XMLID_127_" gradientUnits="userSpaceOnUse" x1="411.7663" y1="688.576" x2="431.4555" y2="742.1061" gradientTransform="matrix(1 0 0 -1 84 1094)">
		<stop  offset="0" style="stop-color:#1B559C"/>
		<stop  offset="1" style="stop-color:#158CE5"/>
	</linearGradient>
	<path id="XMLID_63_" class="st10" d="M326.9,322.2c47.4,12,148.4,14.2,221.7,0c73.4-14.2,202.3-48.8,181.4-9.5
		c-26.8,50.3-76.1,69-76.1,69s-121.4,28.5-237.6-3.5S326.9,322.2,326.9,322.2z"/>
	<path id="XMLID_62_" class="st11" d="M730,312.8c0.7-1.3,1.3-2.6,2-3.9c-24.8,38.4-45,45.7-95.7,60.5c-44.5,12.9-64.1,18-150,12.4
		c-77.7-5,25.4,22.5,174.6-3C675.2,371.6,709.3,351.6,730,312.8z"/>
	<path id="XMLID_61_" class="st12" d="M234.7,220.8c20.1,17,107.3,120.5,210.1,151.3c118.7,35.5,248.4-14.8,264.5-30.2
		c-6.1,6-37.4,66.3-229.2,61.4s-241.3-60.2-254.8-103.8c-13.4-43.7,0-77.2,0-77.2L234.7,220.8z"/>
	<path id="XMLID_60_" class="st11" d="M228.5,280.8c-3.6-29.4-2.8-54.3-0.8-54.6c2-0.2-7.8,56.3,30.1,74.7c9,4.3,14.4,4,15.2,3.4
		c2.6-2.2-28.8-26.2-35.7-43.1c-8.8-22.2-8.8-36.4-8.8-36.4s6,40.2,27.9,48.8c12.1,4.7-8.1-14.9-14.7-24.3
		c-7.1-10.1-9.3-15.2-7.9-16.6c1.3-1.4,20,13.6,24.3,22.5c4.3,9,12.9,8.8,5.1,1.7c-7.8-7.1-14.5-15.2-14.8-17
		c-0.3-1.7,22,17.2,32.9,29.9c10.9,12.8,56.4,48.8,52.8,44.5c-2-2.4-11.6-11-23.9-21.8c-5.7-4.9-11.1-9.6-16.3-14.4
		c-4.6-4-9.3-8.2-13.9-12.3c-4.8-4.3-8.8-8.4-12-12.3c-15.8-15.6-27.3-27.8-33.2-32.7l-9.4,1.4c0,0-13.4,33.5,0,77.2
		c7.9,25.8,28.6,55.8,83.8,76.9C253.3,349.1,231.7,307.5,228.5,280.8z"/>
	<path id="XMLID_59_" class="st11" d="M725.6,219.3c-21.7,35.8-88.3,79-154.9,97.6c-0.2,0.2-0.2,0.3-0.2,0.3s40.7-11.5,81.4-31.4
		c40.7-19.9,61.7-48.8,63.5-44.8c1.8,4-20.6,27.3-39.4,38.4c-18.8,11-62.7,27.1-23.7,18c44.8-10.5,73.4-60.8,74.7-57.4
		c1.3,3.4-7.6,20.2-18.8,27.7c-11.2,7.4-17.9,19.4-1.8,10.5c16.1-8.9,16.1-21.7,20.1-29.8c4-8.1,8.1-21.2,8.1-4.4
		s-11.2,34.8-15.2,40c-4,5.2-18.8,18.8,0.9,9c19.7-9.7,17.9-63.3,17.9-63.3c6.3,9.7-3.1,49.3,1.3,46c1.1-0.9,2.2-2.9,3.2-5.7
		c3.6-27.8-0.1-51.9-0.1-51.9L725.6,219.3z"/>
	<path id="XMLID_58_" class="st13" d="M585.1,398.3c99.4-14.1,119.5-51.7,124.2-56.4c-8.4,8-47.6,25.5-100.1,35.4
		c-7.4,1.6-14.4,2.8-20.5,3.7c-28.8,3.9,9.7,2.1,45.9-6.3c33.4-7.7,44.5-14.2,46.1-15.2c-2.2,1.4-24.3,15.1-59.8,22.6
		c-37.6,7.9,1.7,1.6,8.4,0.4c6.7-1.2-4.7,5.2-23.1,8.4c-18.5,3.2-0.3,2.2,7.4,0.6C619.3,390.3,605.8,394.8,585.1,398.3z"/>
	<g id="XMLID_44_">
		<path id="XMLID_55_" class="st3" d="M732.3,221.2c12.6,1.1,25.8-2.5,29.5-8c3.7-5.5-3.5-10.9-16.2-12c-12.6-1.1-25.8,2.5-29.5,8
			C712.5,214.7,719.8,220.1,732.3,221.2z M723.2,209.8c2.5-3.8,11.7-6.3,20.4-5.6c8.7,0.8,13.7,4.5,11.2,8.3
			c-2.5,3.8-11.7,6.3-20.4,5.6C725.6,217.4,720.7,213.6,723.2,209.8z"/>
		<g id="XMLID_52_" class="st4">
			<path id="XMLID_54_" d="M743.6,204.2c-8.7-0.8-17.9,1.7-20.4,5.6c-0.1,0.2-0.2,0.3-0.3,0.5c0.1-0.4,0.2-0.7,0.5-1.1
				c2.5-3.8,11.7-6.3,20.4-5.6c8.3,0.7,13.2,4.2,11.5,7.8C756.4,208,751.5,204.9,743.6,204.2z"/>
			<path id="XMLID_53_" d="M715.8,210c-1.7,5,5.3,9.6,16.8,10.6c12.6,1.1,25.8-2.5,29.5-8c0.2-0.3,0.3-0.6,0.5-0.8
				c-0.2,0.4-0.3,0.9-0.7,1.4c-3.7,5.5-16.9,9.1-29.5,8C720.4,220.2,713.3,215.3,715.8,210z"/>
		</g>
		<path id="XMLID_51_" class="st5" d="M760.8,208.5c-0.3-1.8-7.3-6.6-19-6.9c-11.8-0.3-19.4,3-22.1,5.8c-3.3,3.5,4.3-1.4,10.5-2.9
			c6.1-1.4,10.9-1.9,15.9-1.1c5.1,0.8,12.6,3.7,12.3,7.3C758.1,214.3,761.3,211.2,760.8,208.5z"/>
		<path id="XMLID_50_" class="st5" d="M758.2,205.1c-2-1.6-8.3-3.8-18.6-3.5c-10.3,0.4-12.1,1.3-11.4,2.1c0.7,0.8,7-1,15-0.7
			c8.1,0.2,11.7,5.1,14.3,5C760.2,208,759.5,206.2,758.2,205.1z"/>
		<path id="XMLID_49_" class="st5" d="M752.6,215.3c-4.3,2.6-12.4,4.3-22.5,2.6c-10-1.6-9.2-5.7-9.2-7.2c-0.1-1.4-3.8-1.6-4.3,0.1
			c-0.6,1.7,0.9,7.3,12.4,8.8c11.6,1.5,16.7,0.1,19.4-0.4c2.7-0.5,9.9-3.2,10.9-4.7C760.3,213,756.4,213,752.6,215.3z"/>
		<path id="XMLID_48_" class="st6" d="M723.5,206.1c-1.5-0.4-4.8,1.4-4.9,2.4c-0.1,0.9,2.8,0.5,4-0.6
			C723.8,206.7,724.3,206.3,723.5,206.1z"/>
		<path id="XMLID_47_" class="st6" d="M719.3,209.9c-0.7-0.1-1.6,0.4-1.7,1.2c-0.2,0.8,1.3,1.6,2.4,0.9
			C721,211.5,720.6,210,719.3,209.9z"/>
		<path id="XMLID_46_" class="st6" d="M719.3,213.2c-0.3,0-0.7,0.2-0.6,0.6s0.8,0.7,1.2,0.4C720.3,213.9,719.8,213.2,719.3,213.2z"
			/>
		<path id="XMLID_45_" class="st6" d="M744.7,202.1c-1.8-0.1-6.5-0.4-11.5,0.5c-5.1,0.9-8.9,2.6-8.9,3c-0.1,0.4,3.1-0.7,6-1.4
			c3-0.8,6.7-1.4,12.4-1.3c3.6,0.1,7.3,1.1,8.7,0.7C752.7,203.3,748.4,202.3,744.7,202.1z"/>
	</g>
	<g id="XMLID_27_">
		<g id="XMLID_35_">
			<path id="XMLID_43_" class="st14" d="M214.5,208.9c-2.9,0-5.7-0.7-6.5-1.8L157,133.5c-0.9-1.3,1.2-2.6,4.7-2.9
				c3.5-0.3,7,0.4,7.9,1.7l51.1,73.6c0.9,1.3-1.2,2.6-4.7,2.9C215.5,208.8,215,208.9,214.5,208.9z"/>
			<path id="XMLID_42_" class="st15" d="M221,206.5c-6.1-0.8-13.9-1.5-16.8-4.5c-2.9-3-3.6-5.8-3.6-5.8s8.7,3.9,16.5,4.3
				c0,0,2.2,1.7,3.2,3C221.2,205,221,206.5,221,206.5z"/>
			<path id="XMLID_41_" class="st15" d="M212.6,194.5c-6.1-0.8-13.9-1.5-16.8-4.5c-2.9-3-3.5-5.7-3.5-5.7s8.7,3.8,16.4,4.3
				c0,0,2.2,1.7,3.2,3C212.8,192.9,212.6,194.5,212.6,194.5z"/>
			<path id="XMLID_40_" class="st15" d="M203.1,180.6c-6.1-0.8-14-1.6-17.1-4.5c-2.9-3-3.4-5.7-3.4-5.7s8.7,3.8,16.4,4.3
				c0,0,2.2,1.7,3.2,3C203.1,179,203.1,180.6,203.1,180.6z"/>
			<path id="XMLID_39_" class="st15" d="M193.5,166.7c-6.1-0.8-14.1-1.4-17.1-4.5c-2.9-3-3.5-5.7-3.5-5.7s8.8,3.8,16.5,4.3
				c0,0,2,1.7,3.1,3C193.5,165.2,193.5,166.7,193.5,166.7z"/>
			<path id="XMLID_38_" class="st15" d="M183.8,152.8c-6.1-0.8-14-1.4-17-4.5c-2.9-3-3.5-5.7-3.5-5.7s8.7,3.8,16.4,4.3
				c0,0,2.1,1.7,3.2,3C183.9,151.3,183.8,152.8,183.8,152.8z"/>
			<path id="XMLID_37_" class="st15" d="M174.7,139.5c-6-0.8-14-1.5-17-4.5c-0.7-0.8-1.3-1.5-1.8-2.2c-0.7-1.1,2.7-1.8,5-1.1
				c2.9,0.8,6.4,1.6,9.6,1.8c0,0,2.3,1.7,3.3,3C174.8,138.1,174.7,139.5,174.7,139.5z"/>
			<path id="XMLID_36_" class="st16" d="M220.9,206.5C220.9,206.5,221,206.5,220.9,206.5c0.1,0,0.1-0.2,0.1-0.6c-0.2,0-0.2,0-0.2,0
				c-2.2,1.9-10,0.2-11.2-2.7c-1.2-2.8-48.5-62.5-48.9-72.5c-1.1,0.2-2,0.5-2.7,0.8c-1.4,0.2-2.5,0.7-2,1.3c0.5,0.7,1.1,1.4,1.8,2.2
				c0.2,0.2,0.5,0.4,0.8,0.7l4.8,6.9c0.1,0.2,0.7,2.8,3.5,5.7c0.3,0.3,0.7,0.6,1,0.8l5.1,7.4c-0.1-0.1-0.1-0.1-0.1-0.1
				s0.6,2.7,3.5,5.7c0.3,0.3,0.7,0.6,1.1,0.9l5.1,7.3l0,0c0,0,0.6,2.7,3.5,5.7c0.3,0.3,0.7,0.6,1.1,0.8l5.1,7.4l0,0
				c0,0,0.6,2.7,3.5,5.7c0.3,0.3,0.7,0.6,1.1,0.8l3.8,5.4l0,0c0,0,0.7,2.8,3.6,5.8c0.2,0.3,0.6,0.6,1,0.8l3,4.3
				c0.7,1.1,3.5,1.8,6.5,1.8c0.5,0,1,0,1.5-0.1C219,208.5,220.9,207.5,220.9,206.5z"/>
		</g>
		<g id="XMLID_28_">
			<path id="XMLID_34_" class="st17" d="M224.4,203.7c1.1,2.6-2.9,5-9.1,5.3c-6.2,0.4-12.2-1.4-13.3-4c-1.1-2.6,2.9-5,9.1-5.3
				C217.3,199.3,223.3,201.1,224.4,203.7z"/>
			<path id="XMLID_33_" class="st15" d="M214.7,199.7c1.9,2.1-2.4,5.4-0.1,5.5c4.4,0.1,10-1.2,9.8-1.8c-0.2-0.7-1.2-1.9-4.3-2.8
				C217.1,199.6,214.7,199.7,214.7,199.7z"/>
			<path id="XMLID_32_" class="st15" d="M215,205.8c1.5,1.3,0.3,3.4-1.2,3.4s-7.6-0.7-9.9-2.2c-2.4-1.6-2.3-2.8-2.1-3.4
				C201.9,203,213.6,204.5,215,205.8z"/>
			<g id="XMLID_29_" class="st4">
				<path id="XMLID_31_" class="st18" d="M210.4,207.8c-3.3-1.6,3.2-2.7,3.2-2.7c-2.5-1.1-8.7-1.3-7-1.3c1.7,0,0.4-3.1,3.1-4
					c-4.2,0.5-7.1,1.9-7.7,3.7c-0.2,0-0.2,0.1-0.2,0.1c-0.2,0.6-0.2,1.9,2.1,3.4c2.4,1.6,8.3,2.3,9.9,2.2c0.2,0,0.5-0.1,0.7-0.2
					c0.2,0,0.6,0,0.8-0.1c4.2-0.2,7.4-1.4,8.7-2.9c0.1-0.1,0.1-0.2,0.1-0.2C222.6,207.3,213.4,209.2,210.4,207.8z"/>
				<path id="XMLID_30_" class="st18" d="M224.2,205.9c0.2-0.1,0.2-0.2,0.2-0.3C224.4,205.2,224.4,205.4,224.2,205.9z"/>
			</g>
		</g>
	</g>
	<g id="XMLID_10_">
		<g id="XMLID_18_">
			<path id="XMLID_26_" class="st14" d="M744.5,207.4c2.9,0,5.6-0.7,6.4-1.8l47.7-74c0.8-1.3-1.4-2.6-4.9-2.8
				c-3.5-0.3-7,0.5-7.8,1.8l-47.8,74c-0.8,1.3,1.4,2.6,4.9,2.8C743.5,207.4,744,207.4,744.5,207.4z"/>
			<path id="XMLID_25_" class="st15" d="M738,205.1c6-0.8,13.8-1.6,16.7-4.6c2.9-3,3.3-5.8,3.3-5.8s-8.6,3.9-16.3,4.4
				c0,0-2.1,1.7-3.1,3.1C737.7,203.5,738,205.1,738,205.1z"/>
			<path id="XMLID_24_" class="st15" d="M745.8,193.1c6-0.8,13.8-1.6,16.7-4.6c2.9-3,3.3-5.8,3.3-5.8s-8.5,3.8-16.2,4.4
				c0,0-2.1,1.7-3.1,3.1C745.5,191.5,745.8,193.1,745.8,193.1z"/>
			<path id="XMLID_23_" class="st15" d="M754.6,179.1c6-0.8,14-1.6,16.8-4.7c2.9-3,3.3-5.8,3.3-5.8s-8.5,3.8-16.2,4.4
				c0,0-2.1,1.7-3.1,3.1S754.6,179.1,754.6,179.1z"/>
			<path id="XMLID_22_" class="st15" d="M763.6,165.1c6-0.8,14-1.6,16.8-4.5c2.9-3,3.3-5.8,3.3-5.8s-8.6,3.9-16.3,4.4
				c0,0-2,1.7-2.9,3C763.6,163.6,763.6,165.1,763.6,165.1z"/>
			<path id="XMLID_21_" class="st15" d="M772.6,151.2c6-0.8,14-1.6,16.8-4.6c2.9-3,3.3-5.8,3.3-5.8s-8.5,3.9-16.3,4.4
				c0,0-2.1,1.7-3,3C772.5,149.7,772.6,151.2,772.6,151.2z"/>
			<path id="XMLID_20_" class="st15" d="M781.2,137.8c6-0.8,14-1.6,16.7-4.6c0.7-0.8,1.3-1.5,1.7-2.2c0.7-1.1-2.8-1.8-5.1-1.1
				c-2.9,0.9-6.2,1.7-9.6,1.9c0,0-2.2,1.7-3.1,3.1S781.2,137.8,781.2,137.8z"/>
			<path id="XMLID_19_" class="st16" d="M738.1,205.1C738,205.1,738,205.1,738.1,205.1c-0.1,0-0.1-0.2-0.1-0.6c0.2,0,0.2,0,0.2,0
				c2.3,1.9,10,0.2,11.1-2.8c1.1-2.8,45.6-62.8,45.6-72.7c1.1,0.2,2,0.4,2.7,0.8c1.4,0.2,2.5,0.7,2.1,1.3c-0.4,0.7-1,1.4-1.7,2.2
				c-0.2,0.2-0.5,0.5-0.8,0.7l-4.5,6.9c0,0.2-0.6,2.8-3.3,5.7c-0.2,0.3-0.6,0.6-1,0.8l-4.8,7.4c0.1-0.1,0.1-0.1,0.1-0.1
				s-0.4,2.7-3.3,5.8c-0.3,0.3-0.7,0.7-1.1,0.9l-4.6,7.2l0,0c0,0-0.4,2.7-3.3,5.8c-0.2,0.3-0.7,0.6-1,0.8l-4.8,7.4l0,0
				c0,0-0.4,2.7-3.3,5.8c-0.3,0.3-0.7,0.6-1.1,0.8l-3.5,5.4l0,0c0,0-0.6,2.8-3.3,5.8c-0.2,0.3-0.6,0.6-0.9,0.8l-2.8,4.3
				c-0.7,1.1-3.4,1.8-6.4,1.8c-0.5,0-1,0-1.5-0.1C740.1,207.1,738.1,206.1,738.1,205.1z"/>
		</g>
		<g id="XMLID_11_">
			<path id="XMLID_17_" class="st19" d="M734.4,202.3c-1.1,2.6,3.1,4.9,9.3,5.3c6.2,0.3,12.1-1.5,13.2-4.1c1.1-2.6-3.1-4.9-9.3-5.3
				C741.2,197.9,735.4,199.7,734.4,202.3z"/>
			<path id="XMLID_16_" class="st15" d="M743.9,198.2c-1.8,2.1,2.6,5.4,0.3,5.5c-4.4,0.1-10.1-1.1-9.9-1.8c0.2-0.7,1.1-1.9,4.2-2.8
				S743.9,198.2,743.9,198.2z"/>
			<path id="XMLID_15_" class="st15" d="M743.9,204.4c-1.4,1.3-0.2,3.4,1.4,3.4c1.6,0.1,7.5-0.7,9.8-2.3c2.3-1.6,2.2-2.8,2-3.4
				C756.9,201.4,745.3,203,743.9,204.4z"/>
			<g id="XMLID_12_" class="st4">
				<path id="XMLID_14_" class="st18" d="M748.6,206.4c3.2-1.6-3.3-2.7-3.3-2.7c2.5-1.1,8.6-1.4,6.9-1.3c-1.7,0-0.5-3.1-3.3-3.9
					c4.2,0.4,7.2,1.9,7.8,3.6c0.2,0,0.2,0.1,0.2,0.1c0.2,0.6,0.2,1.9-2,3.4c-2.3,1.6-8.3,2.3-9.8,2.3c-0.2,0-0.5-0.1-0.7-0.2
					c-0.2,0-0.6,0-0.8,0c-4.2-0.2-7.4-1.4-8.8-2.9c-0.1-0.1-0.1-0.2-0.2-0.2C736.4,205.9,745.7,207.8,748.6,206.4z"/>
				<path id="XMLID_13_" class="st18" d="M734.8,204.5c-0.2-0.1-0.2-0.2-0.2-0.3C734.5,203.9,734.5,204,734.8,204.5z"/>
			</g>
		</g>
	</g>
	<path id="XMLID_9_" class="st12" d="M225.3,222.3c0.2-1.4,0.3-2,1.7-2.5c1.4-0.5,2-0.3,2-0.3s0.3-0.3,1.5-0.5
		c1.2-0.2,1.6-0.4,2.1-0.1c0.7,0.3,2,2,2,2L225.3,222.3z"/>
	<path id="XMLID_8_" class="st11" d="M225.3,222.3c0.2-1.4,0.3-2,1.7-2.5c1.4-0.5,2-0.3,2-0.3s0.3-0.3,1.5-0.5
		c1.2-0.2,1.6-0.4,2.1-0.1c0.7,0.3,2,2,2,2L225.3,222.3z"/>
	<path id="XMLID_7_" class="st7" d="M725.2,220c1.1-1.9,2.5-3,3.8-3s4.1,1,6.9,1s5.4-0.4,6.2-0.4c0.8,0.1,1.9,2.7,1,3.3
		s-6.1,0.8-10,0.6C729,221.4,725.2,220,725.2,220z"/>
	<path id="XMLID_6_" class="st11" d="M725.2,220c1.1-1.9,2.5-3,3.8-3s4.1,1,6.9,1s5.4-0.4,6.2-0.4c0.8,0.1,1.9,2.7,1,3.3
		s-6.1,0.8-10,0.6C729,221.4,725.2,220,725.2,220z"/>
	<path id="XMLID_5_" class="st20" d="M293.9,324.6c15,21.5,43.9,51.7,125.3,67c81.5,15.3,107.7,5,76.2-1.7
		c-31.4-6.7-73.3-8.7-115.9-38c-42.6-29.4-95.7-79.9-105.6-76.3C264,279.1,284.1,310.7,293.9,324.6z"/>
	<path id="XMLID_4_" class="st20" d="M257.5,326.6c21.7,21,41.3,45.5,120.6,61.5c79.2,16,125.5,11.6,115.6,5.2
		c-10-6.3-97.2,6.9-148.5-30.9s-83.2-58.2-93.1-57C242.1,306.4,251.5,320.7,257.5,326.6z"/>
	<path id="XMLID_3_" class="st21" d="M545,327.3c44.4-7.7,58.8-12.3,89.4-20.5c30.6-8.3,53.8-14.1,62.8-8.7c9,5.4,9.9,42-53.8,52.9
		c-93.4,16-172.9,9.6-184.1-3.6C448.2,334.3,488.4,337.2,545,327.3z"/>
	<path id="XMLID_2_" class="st21" d="M620,325.6c22.7-5.8,30.1-9.3,45.8-15.5c15.7-6.3,27.6-10.6,32.2-6.6
		c4.6,4,10.9,17.4-29.9,33.9c-42.4,17.3-86.3,13.4-92.1,3.4C570.4,330.8,591,333,620,325.6z"/>
</g>
<g id="XMLID_91_">
	<line id="XMLID_88_" class="st22" x1="492.5" y1="414" x2="492.5" y2="488"/>
	<line id="XMLID_89_" class="st22" x1="483" y1="414.5" x2="502" y2="414.5"/>
	<line id="XMLID_90_" class="st22" x1="483" y1="488.5" x2="502" y2="488.5"/>
</g>
<g id="XMLID_92_">
	<line id="XMLID_95_" class="st22" x1="60.5" y1="56" x2="60.5" y2="488"/>
	<line id="XMLID_94_" class="st22" x1="51" y1="55.5" x2="70" y2="55.5"/>
	<line id="XMLID_93_" class="st22" x1="51" y1="488.5" x2="70" y2="488.5"/>
</g>
<g id="XMLID_103_">
	<line id="XMLID_106_" class="st22" x1="143" y1="55.5" x2="806" y2="55.5"/>
	<line id="XMLID_105_" class="st22" x1="143.5" y1="65" x2="143.5" y2="46"/>
	<line id="XMLID_104_" class="st22" x1="806.5" y1="65" x2="806.5" y2="46"/>
</g>
<g id="XMLID_100_">
	<circle id="XMLID_102_" class="st23" cx="474.2" cy="55.9" r="55.1"/>
	<circle id="XMLID_101_" class="st24" cx="474.4" cy="55.9" r="49.1"/>
</g>
<path id="XMLID_107_" class="st2" d="M677.4,184.9c0.7-21.3,1.2-42.6,1.9-63.9c2.6,1.5,5.1,3.1,7.7,4.6
	c10.1-16.7,20.1-33.4,30.2-50.1c13.5,8.1,27,16.2,40.4,24.4c-10.1,16.7-20.1,33.4-30.2,50.1c2.6,1.6,5.1,3.1,7.7,4.6
	c-19.2,10.9-38.4,21.8-57.6,32.6C677.2,186.5,677.5,185.7,677.4,184.9z"/>
<path id="XMLID_108_" class="st2" d="M327.4,111.6c-18.6,10.3-37.3,20.7-55.9,31c0-3,0-6,0-9c-19.5-0.1-39-0.2-58.5-0.3
	c0.1-15.7,0.2-31.5,0.3-47.2c19.5,0.1,39,0.2,58.5,0.3c0-3,0-6,0.1-9c19.2,10.9,38.3,21.8,57.5,32.8
	C328.8,110.9,328,111.1,327.4,111.6z"/>
<circle id="XMLID_110_" class="st25" cx="431.7" cy="450.7" r="40.1"/>
<circle id="XMLID_87_" class="st1" cx="492.5" cy="452.3" r="6.5"/>
<g id="XMLID_122_">
	<circle id="XMLID_124_" class="st23" cx="60.2" cy="142.9" r="55.1"/>
	<circle id="XMLID_123_" class="st24" cx="60.4" cy="142.9" r="49.1"/>
</g>
</svg>
