<?xml version="1.0" encoding="utf-8"?>
<!-- Generator: Adobe Illustrator 19.0.0, SVG Export Plug-In . SVG Version: 6.00 Build 0)  -->
<svg version="1.1" id="Ñëîé_1" xmlns="http://www.w3.org/2000/svg" xmlns:xlink="http://www.w3.org/1999/xlink" x="0px" y="0px"
	 viewBox="0 0 788.3 495.8" style="enable-background:new 0 0 788.3 495.8;" xml:space="preserve">
<style type="text/css">
	.st0{fill:#A1A5A8;}
	.st1{opacity:0.15;}
	.st2{opacity:0.25;fill:#FFFFFF;}
	.st3{opacity:0.75;fill:#FFFFFF;}
	.st4{fill:#158CE5;}
	.st5{filter:url(#Adobe_OpacityMaskFilter);}
	.st6{filter:url(#Adobe_OpacityMaskFilter_1_);}
	.st7{mask:url(#SVGID_1_);fill:url(#SVGID_2_);}
	.st8{fill:url(#SVGID_3_);}
	.st9{opacity:0.15;fill:#051F91;}
	.st10{fill:#40A4FF;}
	.st11{opacity:0.25;fill:#0382E2;}
	.st12{fill:#F4A769;}
	.st13{fill:#CC7337;}
	.st14{opacity:0.25;fill:#664701;}
	.st15{fill:#F9B485;}
	.st16{fill:#664701;}
	.st17{fill:#FFB27D;}
	.st18{opacity:0.15;fill:#E6F4FF;}
	.st19{opacity:0.1;fill:#E6F4FF;}
</style>
<g>
	<path class="st0" d="M109,148.2c-4.5-10-20.7-16.5-36.2-14.5c-15.4,2-24.2,11.7-19.7,21.7c4.5,10,20.7,16.5,36.2,14.5
		C104.7,167.9,113.5,158.2,109,148.2z M86.7,164.4c-10.7,1.4-21.9-3.1-25.1-10c-3.2-6.9,3-13.7,13.7-15c10.7-1.4,21.9,3.1,25.1,10
		C103.6,156.2,97.4,163,86.7,164.4z"/>
	<g class="st1">
		<path d="M75.3,139.3c10.7-1.4,21.9,3.1,25.1,10c0.1,0.3,0.2,0.6,0.4,0.9c-0.1-0.7-0.3-1.3-0.6-2c-3.2-6.9-14.4-11.4-25.1-10
			c-10.2,1.3-16.2,7.5-14,14.1C59.7,146.2,65.6,140.5,75.3,139.3z"/>
		<path d="M109.5,149.7c2.1,9-6.4,17.3-20.5,19.2c-15.4,2-31.6-4.5-36.2-14.5c-0.2-0.5-0.4-1-0.6-1.5c0.2,0.8,0.5,1.7,0.8,2.5
			c4.5,10,20.7,16.5,36.2,14.5C103.9,168,112.6,159.1,109.5,149.7z"/>
	</g>
	<path class="st2" d="M54.4,147.1c0.4-3.3,8.8-11.9,23.2-12.4s23.8,5.5,27,10.5c4,6.3-5.3-2.5-12.8-5.1c-7.5-2.6-13.3-3.4-19.5-1.9
		c-6.2,1.5-15.3,6.7-14.9,13.1C57.8,157.5,53.8,152,54.4,147.1z"/>
	<path class="st2" d="M57.5,140.9c2.5-2.9,10.2-7,22.8-6.3s14.8,2.4,14,3.7c-0.9,1.4-8.6-1.8-18.4-1.3c-9.9,0.4-14.3,9.2-17.5,9.1
		C55.1,146.1,55.8,142.9,57.5,140.9z"/>
	<path class="st2" d="M64.5,159.3c5.3,4.7,15.2,7.7,27.5,4.7c12.3-3,11.2-10.3,11.3-12.9c0.1-2.6,4.7-2.9,5.3,0.1
		c0.7,3-1,13.1-15.2,15.9s-20.5,0.2-23.8-0.7c-3.4-0.9-12.1-5.8-13.3-8.4C55,155.2,59.8,155.1,64.5,159.3z"/>
	<path class="st3" d="M100,142.6c1.8-0.7,6,2.6,6,4.3c0.1,1.8-3.4,0.9-4.9-1.1C99.6,143.8,99,143,100,142.6z"/>
	<path class="st3" d="M105.2,149.5c0.8-0.1,2,0.7,2.2,2.1c0.2,1.4-1.6,2.9-2.9,1.8C103.1,152.3,103.6,149.8,105.2,149.5z"/>
	<path class="st3" d="M105.2,155.5c0.4,0,0.8,0.4,0.7,1c-0.1,0.6-1,1.2-1.5,0.7C104,156.6,104.5,155.5,105.2,155.5z"/>
	<path class="st3" d="M74.1,135.5c2.2-0.2,7.9-0.8,14.1,0.9c6.2,1.7,10.9,4.7,10.9,5.4c0.1,0.8-3.8-1.2-7.3-2.6
		c-3.7-1.5-8.2-2.6-15.2-2.4c-4.4,0.1-8.9,2-10.6,1.3C64.2,137.5,69.4,135.9,74.1,135.5z"/>
</g>
<path class="st4" d="M209.4,349c58,21.6,181.7,25.7,271.4,0c89.8-25.7,187.2-113.8,216.7-185.6l20.8-2.3c0,0,10.2,99.9-15.5,170.9
	c-32.8,90.8-93.2,124.5-93.2,124.5s-148.6,51.4-290.9-6.4S209.4,349,209.4,349z"/>
<defs>
	<filter id="Adobe_OpacityMaskFilter" filterUnits="userSpaceOnUse" x="206.1" y="299.1" width="499.6" height="178.4">
		<feFlood  style="flood-color:white;flood-opacity:1" result="back"/>
		<feBlend  in="SourceGraphic" in2="back" mode="normal"/>
	</filter>
</defs>
<mask maskUnits="userSpaceOnUse" x="206.1" y="299.1" width="499.6" height="178.4" id="SVGID_1_">
	<g class="st5">
		<defs>
			<filter id="Adobe_OpacityMaskFilter_1_" filterUnits="userSpaceOnUse" x="206.1" y="299.1" width="499.6" height="178.4">
				<feFlood  style="flood-color:white;flood-opacity:1" result="back"/>
				<feBlend  in="SourceGraphic" in2="back" mode="normal"/>
			</filter>
		</defs>
		<mask maskUnits="userSpaceOnUse" x="206.1" y="299.1" width="499.6" height="178.4" id="SVGID_1_">
			<g class="st6">
			</g>
		</mask>
		<linearGradient id="SVGID_2_" gradientUnits="userSpaceOnUse" x1="405.9501" y1="476.2242" x2="434.558" y2="398.4463">
			<stop  offset="0" style="stop-color:#FFFFFF"/>
			<stop  offset="1" style="stop-color:#000000"/>
		</linearGradient>
		<path class="st7" d="M209.4,349c58,21.6,181.7,25.7,271.4,0c89.8-25.7,247.7-88.1,222.1-17.1c-32.8,90.8-93.2,124.5-93.2,124.5
			s-148.6,51.4-290.9-6.4S209.4,349,209.4,349z"/>
	</g>
</mask>
<linearGradient id="SVGID_3_" gradientUnits="userSpaceOnUse" x1="405.9501" y1="476.2242" x2="434.558" y2="398.4463">
	<stop  offset="0" style="stop-color:#1B559C"/>
	<stop  offset="1" style="stop-color:#158CE5"/>
</linearGradient>
<path class="st8" d="M209.4,349c58,21.6,181.7,25.7,271.4,0c89.8-25.7,247.7-88.1,222.1-17.1c-32.8,90.8-93.2,124.5-93.2,124.5
	s-148.6,51.4-290.9-6.4S209.4,349,209.4,349z"/>
<path class="st9" d="M702.9,332c0.8-2.3,1.6-4.7,2.4-7.1C675,394.2,650.2,407.4,588.1,434c-54.5,23.3-78.5,32.4-183.6,22.3
	c-95.1-9.1,31.1,40.6,213.7-5.5C635.9,438,677.6,402,702.9,332z"/>
<path class="st10" d="M96.6,166c24.6,30.6,131.3,217.4,257.2,272.9c145.3,64,304.1-26.7,323.8-54.4
	c-7.5,10.9-45.8,119.5-280.6,110.7S101.6,386.7,85.1,307.9c-16.4-78.8,0-139.2,0-139.2L96.6,166z"/>
<path class="st9" d="M89,274.3c-4.4-53.1-3.4-98-1-98.4c2.5-0.4-9.6,101.6,36.9,134.8c11,7.8,17.6,7.3,18.6,6.1
	c3.2-3.9-35.3-47.2-43.7-77.8C89,199,89,173.3,89,173.3s7.3,72.5,34.1,88c14.8,8.5-9.9-26.9-18-43.9c-8.7-18.2-11.4-27.4-9.7-29.9
	c1.6-2.5,24.5,24.6,29.8,40.5c5.3,16.2,15.8,15.8,6.2,3c-9.6-12.8-17.7-27.5-18.1-30.7c-0.4-3,26.9,31,40.3,54
	c13.4,23.1,69,88,64.6,80.3c-2.5-4.4-14.2-19.8-29.2-39.3c-7-8.8-13.6-17.4-20-26c-5.6-7.3-11.4-14.8-17-22.1
	c-5.9-7.8-10.8-15.2-14.7-22.1c-19.4-28.1-33.4-50.1-40.6-59l-11.5,2.6c0,0-16.4,60.4,0,139.2c9.7,46.6,35,100.6,102.6,138.7
	C119.4,397.4,92.9,322.4,89,274.3z"/>
<path class="st9" d="M697.5,163.4C670.9,228,589.4,305.9,507.9,339.5c-0.2,0.3-0.3,0.5-0.3,0.5s49.8-20.7,99.6-56.6
	c49.8-35.9,75.5-88.1,77.7-80.8c2.2,7.3-25.2,49.3-48.2,69.2c-23,19.8-76.8,48.9-29,32.4c54.8-18.9,89.8-109.7,91.4-103.6
	c1.6,6.1-9.3,36.5-23,49.9c-13.7,13.4-21.9,35-2.2,19c19.7-16.1,19.7-39.1,24.6-53.7c4.9-14.6,9.9-38.2,9.9-7.9
	s-13.7,62.8-18.6,72.1c-4.9,9.3-23,33.9,1.1,16.3c24.1-17.5,21.9-114.1,21.9-114.1c7.7,17.5-3.8,89,1.6,82.9
	c1.4-1.6,2.7-5.2,3.9-10.3c4.4-50.1-0.1-93.6-0.1-93.6L697.5,163.4z"/>
<path class="st11" d="M525.5,486.2c121.7-25.4,146.3-93.2,152.1-101.7c-10.3,14.4-58.3,46-122.5,63.8c-9,2.8-17.6,5.1-25.1,6.6
	c-35.3,7,11.9,3.7,56.2-11.4c40.9-13.9,54.5-25.6,56.4-27.4c-2.7,2.5-29.7,27.2-73.2,40.7c-46,14.2,2.1,2.8,10.3,0.7
	c8.2-2.2-5.7,9.4-28.3,15.1c-22.6,5.7-0.4,3.9,9,1.1C567.4,471.7,550.9,479.9,525.5,486.2z"/>
<g>
	<path class="st0" d="M705.8,166.8c15.4,2,31.6-4.5,36.1-14.5c4.5-10-4.3-19.7-19.8-21.7c-15.4-2-31.6,4.5-36.1,14.5
		C681.5,155.1,690.4,164.8,705.8,166.8z M694.6,146.2c3.1-6.9,14.3-11.4,25-10.1c10.7,1.4,16.8,8.1,13.7,15
		c-3.1,6.9-14.3,11.4-25,10.1C697.6,159.9,691.5,153.1,694.6,146.2z"/>
	<g class="st1">
		<path d="M719.6,136.1c-10.7-1.4-21.9,3.1-25,10.1c-0.1,0.3-0.2,0.6-0.4,0.9c0.1-0.7,0.3-1.3,0.6-2c3.1-6.9,14.3-11.4,25-10.1
			c10.2,1.3,16.2,7.5,14.1,14.1C735.2,143,729.3,137.4,719.6,136.1z"/>
		<path d="M685.5,146.6c-2.1,9,6.5,17.3,20.6,19.1c15.4,2,31.6-4.5,36.1-14.5c0.2-0.5,0.4-1,0.6-1.5c-0.2,0.8-0.4,1.7-0.8,2.5
			c-4.5,10-20.7,16.5-36.1,14.5C691.2,164.9,682.5,156.1,685.5,146.6z"/>
	</g>
	<path class="st2" d="M740.6,143.9c-0.4-3.3-8.9-11.9-23.2-12.4c-14.4-0.5-23.8,5.5-27,10.5c-4,6.3,5.3-2.5,12.8-5.2
		c7.5-2.6,13.3-3.4,19.5-1.9c6.2,1.5,15.4,6.7,15,13.1C737.3,154.3,741.2,148.8,740.6,143.9z"/>
	<path class="st2" d="M737.4,137.8c-2.5-2.9-10.2-6.9-22.8-6.3c-12.6,0.7-14.8,2.4-13.9,3.8c0.9,1.4,8.6-1.8,18.4-1.3
		c9.9,0.4,14.3,9.2,17.5,9.1C739.9,143,739.1,139.7,737.4,137.8z"/>
	<path class="st2" d="M730.6,156.1c-5.3,4.7-15.2,7.7-27.5,4.7c-12.3-2.9-11.3-10.3-11.3-12.9c-0.1-2.6-4.7-2.9-5.3,0.1
		c-0.7,3,1.1,13.1,15.2,15.9c14.2,2.7,20.5,0.2,23.8-0.8c3.3-0.9,12.1-5.8,13.3-8.4C740,152,735.3,151.9,730.6,156.1z"/>
	<path class="st3" d="M695,139.5c-1.8-0.7-5.9,2.6-6,4.3s3.4,0.9,4.9-1.1C695.3,140.7,695.9,139.9,695,139.5z"/>
	<path class="st3" d="M689.8,146.4c-0.8-0.1-2,0.7-2.1,2.1c-0.2,1.4,1.6,2.9,2.9,1.7C691.9,149.2,691.4,146.6,689.8,146.4z"/>
	<path class="st3" d="M689.8,152.4c-0.4,0-0.8,0.4-0.7,1c0.1,0.6,1,1.2,1.5,0.7S690.5,152.4,689.8,152.4z"/>
	<path class="st3" d="M720.9,132.4c-2.2-0.2-7.9-0.8-14.1,0.9c-6.2,1.7-10.9,4.7-10.9,5.4c-0.1,0.8,3.8-1.2,7.3-2.6
		c3.7-1.5,8.2-2.6,15.2-2.4c4.4,0.1,8.9,2,10.7,1.3C730.7,134.4,725.5,132.7,720.9,132.4z"/>
</g>
<g>
	<g>
		<path class="st12" d="M71.9,144.5c-3.6,0-7-1.3-7.9-3.2L1.4,8.5C0.3,6.2,2.9,3.9,7.2,3.3c4.3-0.6,8.6,0.8,9.7,3.1l62.6,132.8
			c1.1,2.3-1.5,4.6-5.8,5.2C73.1,144.4,72.5,144.5,71.9,144.5z"/>
		<path class="st13" d="M79.8,140.3c-7.5-1.4-17-2.7-20.6-8.2c-3.6-5.5-4.4-10.4-4.4-10.4s10.7,7,20.2,7.8c0,0,2.7,3,3.9,5.5
			C80.1,137.5,79.8,140.3,79.8,140.3z"/>
		<path class="st13" d="M69.5,118.6c-7.5-1.4-17-2.7-20.6-8.2c-3.6-5.5-4.3-10.3-4.3-10.3s10.6,6.8,20.1,7.7c0,0,2.7,3,3.9,5.5
			C69.8,115.8,69.5,118.6,69.5,118.6z"/>
		<path class="st13" d="M57.9,93.5c-7.5-1.4-17.2-2.8-20.9-8.2C33.4,79.9,32.8,75,32.8,75s10.6,6.8,20.1,7.7c0,0,2.7,3,3.9,5.5
			C57.9,90.7,57.9,93.5,57.9,93.5z"/>
		<path class="st13" d="M46.1,68.4c-7.5-1.4-17.3-2.6-20.9-8.1C21.6,54.8,20.9,50,20.9,50s10.8,6.9,20.2,7.7c0,0,2.5,3,3.8,5.5
			C46.1,65.7,46.1,68.4,46.1,68.4z"/>
		<path class="st13" d="M34.3,43.4c-7.5-1.4-17.2-2.6-20.8-8.1C9.9,29.8,9.2,25,9.2,25s10.7,6.9,20.1,7.8c0,0,2.6,3,3.9,5.4
			C34.4,40.7,34.3,43.4,34.3,43.4z"/>
		<path class="st13" d="M23.1,19.5C15.7,18.1,6,16.8,2.3,11.4c-0.9-1.4-1.6-2.7-2.2-4c-0.9-1.9,3.3-3.3,6.1-2C9.8,6.9,14,8.3,18,8.7
			c0,0,2.8,3,4,5.5C23.2,16.8,23.1,19.5,23.1,19.5z"/>
		<path class="st14" d="M79.7,140.2C79.7,140.2,79.8,140.3,79.7,140.2c0.1,0,0.1-0.4,0.1-1c-0.2,0-0.3,0-0.3,0
			c-2.7,3.4-12.2,0.4-13.7-4.9C64.3,129.2,6.4,21.6,5.9,3.5C4.5,3.9,3.4,4.4,2.6,5c-1.7,0.3-3,1.3-2.5,2.4c0.6,1.2,1.3,2.6,2.2,4
			c0.3,0.4,0.6,0.8,1,1.2L9.2,25c0.1,0.3,0.8,5,4.3,10.3c0.4,0.5,0.8,1,1.2,1.5L21,50.1C20.9,50,20.9,50,20.9,50s0.7,4.9,4.3,10.3
			c0.4,0.6,0.9,1.1,1.4,1.6L32.8,75c0,0,0,0,0,0s0.7,4.9,4.3,10.3c0.4,0.5,0.8,1,1.3,1.5l6.3,13.3c0,0,0,0,0,0s0.7,4.9,4.3,10.3
			c0.4,0.6,0.8,1.1,1.3,1.5l4.6,9.7c0,0,0,0,0,0s0.8,5,4.4,10.4c0.3,0.5,0.7,1,1.2,1.4l3.7,7.8c0.9,2,4.3,3.3,7.9,3.2
			c0.6,0,1.2,0,1.8-0.1C77.3,143.9,79.7,142.1,79.7,140.2z"/>
	</g>
	<g>
		<path class="st15" d="M84,135.2c1.4,4.7-3.6,9-11.1,9.6c-7.6,0.7-14.9-2.6-16.3-7.2c-1.4-4.7,3.6-9,11.1-9.6
			C75.3,127.3,82.6,130.5,84,135.2z"/>
		<path class="st13" d="M72.1,128c2.3,3.7-2.9,9.8-0.1,9.9c5.4,0.2,12.3-2.1,12-3.3c-0.3-1.2-1.5-3.5-5.3-5.1
			C75,127.9,72.1,128,72.1,128z"/>
		<path class="st13" d="M72.5,139c1.8,2.4,0.4,6.1-1.5,6.2s-9.3-1.2-12.1-4c-2.9-2.8-2.8-5.1-2.6-6.2
			C56.4,133.9,70.7,136.6,72.5,139z"/>
		<g class="st1">
			<path class="st16" d="M66.8,142.6c-4-2.8,3.9-4.9,3.9-4.9c-3-1.9-10.6-2.4-8.6-2.4c2.1,0,0.5-5.6,3.8-7.2
				c-5.1,0.9-8.7,3.5-9.4,6.6c-0.2,0-0.3,0.1-0.3,0.2c-0.2,1.1-0.2,3.4,2.6,6.2c2.9,2.8,10.2,4.1,12.1,4c0.3,0,0.6-0.1,0.8-0.3
				c0.3,0,0.7,0,1-0.1c5.1-0.4,9-2.6,10.6-5.3c0.1-0.1,0.1-0.3,0.1-0.4C81.7,141.7,70.5,145.2,66.8,142.6z"/>
			<path class="st16" d="M83.7,139.1c0.2-0.2,0.3-0.4,0.3-0.6C84,138,84,138.3,83.7,139.1z"/>
		</g>
	</g>
</g>
<g>
	<g>
		<path class="st12" d="M720.7,141.9c3.6,0,6.9-1.3,7.8-3.3L786.9,5.2c1-2.3-1.7-4.6-6-5.1c-4.3-0.5-8.6,0.9-9.6,3.2l-58.5,133.4
			c-1,2.3,1.7,4.6,6,5.1C719.5,141.8,720.1,141.9,720.7,141.9z"/>
		<path class="st13" d="M712.7,137.7c7.4-1.5,16.9-2.9,20.4-8.3c3.5-5.5,4.1-10.5,4.1-10.5s-10.5,7.1-19.9,8c0,0-2.6,3.1-3.8,5.6
			C712.3,134.9,712.7,137.7,712.7,137.7z"/>
		<path class="st13" d="M722.3,116c7.4-1.5,16.9-2.9,20.4-8.3c3.5-5.5,4-10.4,4-10.4s-10.4,6.9-19.8,7.9c0,0-2.6,3.1-3.8,5.6
			C721.9,113.2,722.3,116,722.3,116z"/>
		<path class="st13" d="M733.1,90.8c7.4-1.5,17.2-2.9,20.6-8.4c3.5-5.5,4-10.4,4-10.4s-10.4,6.9-19.8,7.9c0,0-2.6,3.1-3.8,5.6
			S733.1,90.8,733.1,90.8z"/>
		<path class="st13" d="M744.1,65.5c7.4-1.5,17.2-2.8,20.6-8.2c3.5-5.5,4-10.4,4-10.4s-10.5,7-20,7.9c0,0-2.5,3-3.6,5.5
			C744.1,62.9,744.1,65.5,744.1,65.5z"/>
		<path class="st13" d="M755.1,40.5c7.4-1.5,17.1-2.8,20.6-8.3c3.5-5.5,4-10.4,4-10.4s-10.4,7-19.9,8c0,0-2.6,3-3.7,5.5
			S755.1,40.5,755.1,40.5z"/>
		<path class="st13" d="M765.6,16.4c7.4-1.5,17.1-2.8,20.5-8.3c0.9-1.4,1.6-2.7,2.1-4c0.8-1.9-3.4-3.3-6.2-2
			c-3.5,1.6-7.6,3.1-11.7,3.5c0,0-2.7,3.1-3.8,5.6S765.6,16.4,765.6,16.4z"/>
		<path class="st14" d="M712.8,137.7C712.7,137.7,712.7,137.7,712.8,137.7c-0.1,0-0.1-0.4-0.1-1c0.2,0,0.3,0,0.3,0
			c2.8,3.4,12.2,0.3,13.6-5.1c1.3-5.1,55.8-113.2,55.8-131.2c1.4,0.3,2.5,0.8,3.3,1.4c1.7,0.3,3.1,1.2,2.6,2.4
			c-0.5,1.2-1.2,2.6-2.1,4c-0.3,0.4-0.6,0.9-1,1.2l-5.5,12.5c0,0.3-0.7,5-4,10.3c-0.3,0.5-0.7,1-1.2,1.5L768.6,47
			c0.1-0.1,0.1-0.1,0.1-0.1s-0.5,4.9-4,10.4c-0.4,0.6-0.9,1.2-1.4,1.7L757.7,72c0,0,0,0,0,0s-0.5,4.9-4,10.4c-0.3,0.5-0.8,1-1.2,1.5
			l-5.9,13.4c0,0,0,0,0,0s-0.5,4.9-4,10.4c-0.4,0.6-0.8,1.1-1.3,1.5l-4.3,9.7c0,0,0,0,0,0s-0.7,5-4.1,10.5c-0.3,0.5-0.7,1-1.1,1.4
			l-3.4,7.8c-0.9,2-4.2,3.3-7.8,3.3c-0.6,0-1.2,0-1.8-0.1C715.3,141.3,712.8,139.6,712.8,137.7z"/>
	</g>
	<g>
		<path class="st17" d="M708.3,132.7c-1.3,4.7,3.8,8.9,11.4,9.5c7.6,0.6,14.8-2.7,16.1-7.4c1.3-4.7-3.8-8.9-11.4-9.5
			C716.7,124.7,709.6,128,708.3,132.7z"/>
		<path class="st13" d="M720,125.3c-2.2,3.7,3.2,9.8,0.4,9.9c-5.4,0.2-12.4-2-12.1-3.2c0.2-1.2,1.3-3.5,5.1-5.1S720,125.3,720,125.3
			z"/>
		<path class="st13" d="M719.9,136.4c-1.7,2.4-0.2,6.1,1.7,6.2c1.9,0.1,9.2-1.3,12-4.1c2.8-2.8,2.7-5.1,2.5-6.2
			C735.9,131.1,721.6,133.9,719.9,136.4z"/>
		<g class="st1">
			<path class="st16" d="M725.7,140c3.9-2.8-4-4.9-4-4.9c3-1.9,10.5-2.5,8.5-2.4c-2.1,0-0.6-5.6-4-7.1c5.1,0.8,8.8,3.4,9.6,6.5
				c0.2,0,0.3,0.1,0.3,0.2c0.2,1.1,0.3,3.4-2.5,6.2c-2.8,2.8-10.1,4.2-12,4.1c-0.3,0-0.6-0.1-0.8-0.3c-0.3,0-0.7,0-1,0
				c-5.1-0.4-9.1-2.5-10.8-5.2c-0.1-0.1-0.1-0.3-0.2-0.4C710.8,139.2,722.1,142.6,725.7,140z"/>
			<path class="st16" d="M708.8,136.6c-0.2-0.2-0.3-0.4-0.3-0.6C708.4,135.5,708.4,135.8,708.8,136.6z"/>
		</g>
	</g>
</g>
<path class="st10" d="M85.1,168.7c0.2-2.5,0.4-3.6,2.1-4.5c1.7-0.9,2.4-0.6,2.4-0.6s0.4-0.6,1.8-0.9c1.5-0.3,1.9-0.7,2.6-0.2
	c0.8,0.5,2.5,3.6,2.5,3.6L85.1,168.7z"/>
<path class="st9" d="M85.1,168.7c0.2-2.5,0.4-3.6,2.1-4.5c1.7-0.9,2.4-0.6,2.4-0.6s0.4-0.6,1.8-0.9c1.5-0.3,1.9-0.7,2.6-0.2
	c0.8,0.5,2.5,3.6,2.5,3.6L85.1,168.7z"/>
<path class="st4" d="M697,164.6c1.3-3.5,3.1-5.4,4.6-5.4c1.5,0,5,1.8,8.4,1.8c3.4,0,6.6-0.8,7.6-0.7c1,0.1,2.3,4.9,1.2,6
	c-1.1,1.1-7.5,1.4-12.2,1.1C701.7,167.2,697,164.6,697,164.6z"/>
<path class="st9" d="M697,164.6c1.3-3.5,3.1-5.4,4.6-5.4c1.5,0,5,1.8,8.4,1.8c3.4,0,6.6-0.8,7.6-0.7c1,0.1,2.3,4.9,1.2,6
	c-1.1,1.1-7.5,1.4-12.2,1.1C701.7,167.2,697,164.6,697,164.6z"/>
<path class="st18" d="M169,353.3c18.4,38.8,53.7,93.2,153.4,120.8c99.8,27.6,131.8,9,93.3-3s-89.7-15.7-141.9-68.6
	c-52.2-53-117.1-144.2-129.3-137.7C132.4,271.2,157.1,328.2,169,353.3z"/>
<path class="st18" d="M124.5,356.8c26.6,37.9,50.6,82,147.6,110.9c97,28.8,153.7,20.9,141.5,9.4c-12.2-11.4-119,12.4-181.8-55.7
	S130,316.5,117.8,318.5C105.6,320.5,117.2,346.3,124.5,356.8z"/>
<path class="st19" d="M476.5,358.2c54.3-13.9,72-22.1,109.5-37c37.5-14.9,65.9-25.4,76.9-15.7c11,9.7,12.1,75.8-65.9,95.5
	c-114.4,28.8-211.7,17.4-225.4-6.5C357.9,370.7,407.2,376,476.5,358.2z"/>
<path class="st19" d="M568.3,355c27.8-10.5,36.9-16.7,56.1-28c19.2-11.3,33.8-19.2,39.4-11.9c5.6,7.3,13.3,31.3-36.6,61.2
	c-51.9,31.2-105.7,24.2-112.7,6.1C507.5,364.4,532.8,368.5,568.3,355z"/>
</svg>
